<svg width="19" height="18" viewBox="0 0 19 18" fill="none" xmlns="http://www.w3.org/2000/svg">
<g style="mix-blend-mode:darken">
<mask id="mask0_450_3613" style="mask-type:alpha" maskUnits="userSpaceOnUse" x="0" y="0" width="19" height="18">
<path d="M9.5 0C4.52948 0 0.5 4.02939 0.5 9C0.5 13.9705 4.52948 18 9.5 18C14.4705 18 18.5 13.9705 18.5 9C18.5 4.02939 14.4705 0 9.5 0ZM9.5 16.2C5.52353 16.2 2.3 12.9765 2.3 9C2.3 5.02353 5.52353 1.8 9.5 1.8C13.4765 1.8 16.7 5.02353 16.7 9C16.7 12.9765 13.4765 16.2 9.5 16.2Z" fill="#231526"/>
<path d="M9.50001 2.47501C5.89632 2.47501 2.97501 5.39632 2.97501 9.00001C2.97501 12.6037 5.89632 15.525 9.50001 15.525C13.1037 15.525 16.025 12.6037 16.025 9.00001C16.025 5.39632 13.1037 2.47501 9.50001 2.47501Z" fill="#231526"/>
</mask>
<g mask="url(#mask0_450_3613)">
<g opacity="0.5">
<path d="M20.0443 13.9866L15.4163 19.5021L-1.95612 4.92493L2.67196 -0.590585L20.0443 13.9866Z" fill="white"/>
</g>
</g>
</g>
</svg>
